<svg width="51" height="27" fill="none" xmlns="http://www.w3.org/2000/svg"><g clip-path="url(#clip0)"><g filter="url(#filter0_d)"><path fill-rule="evenodd" clip-rule="evenodd" d="M0 10C0 4.477 4.477 0 10 0h31c5.523 0 10 4.477 10 10v4c0 5.523-4.477 10-10 10H30l-5 3-5-3H10C4.477 24 0 19.523 0 14v-4z" fill="#fff"/></g><path d="M12.432 17v-3.328h3.44v-1.4h-3.44v-2.268h3.767v-1.46h-5.537V17h1.77zm4.67 0h1.71v-3.51c0-.885.493-1.4 1.336-1.4.247 0 .48.04.622.1v-1.506a1.74 1.74 0 00-.487-.065c-.738 0-1.271.434-1.494 1.23h-.035v-1.13h-1.652V17zm6.978-5.15c.762 0 1.283.55 1.318 1.353h-2.666c.059-.785.598-1.353 1.348-1.353zm1.342 3.228c-.158.48-.639.791-1.266.791-.873 0-1.441-.615-1.441-1.512v-.105h4.33v-.522c0-1.91-1.154-3.146-2.983-3.146-1.857 0-3.029 1.3-3.029 3.305 0 2.01 1.16 3.246 3.094 3.246 1.553 0 2.678-.826 2.865-2.057h-1.57zm5.326-3.228c.762 0 1.283.55 1.318 1.353H29.4c.059-.785.598-1.353 1.348-1.353zm1.342 3.228c-.158.48-.639.791-1.266.791-.873 0-1.441-.615-1.441-1.512v-.105h4.33v-.522c0-1.91-1.154-3.146-2.983-3.146-1.857 0-3.029 1.3-3.029 3.305 0 2.01 1.16 3.246 3.094 3.246 1.553 0 2.678-.826 2.865-2.057h-1.57z" fill="#000"/><path fill-rule="evenodd" clip-rule="evenodd" d="M40.883 18.47a1 1 0 01-1.414 0l-3.176-3.176c-.623-.624-.194-1.69.688-1.707l1.216-.024V8a1 1 0 011-1h2.118a1 1 0 011 1v5.484l1.142-.022c.9-.017 1.363 1.07.727 1.707l-3.3 3.3z" fill="#EE304E"/></g><defs><clipPath id="clip0"><path fill="#fff" d="M0 0h51v27H0z"/></clipPath><filter id="filter0_d" x="-4" y="-2" width="59" height="35" filterUnits="userSpaceOnUse" color-interpolation-filters="sRGB"><feFlood flood-opacity="0" result="BackgroundImageFix"/><feColorMatrix in="SourceAlpha" values="0 0 0 0 0 0 0 0 0 0 0 0 0 0 0 0 0 0 127 0" result="hardAlpha"/><feOffset dy="2"/><feGaussianBlur stdDeviation="2"/><feColorMatrix values="0 0 0 0 0.352925 0 0 0 0 0 0 0 0 0 0.487432 0 0 0 0.258332 0"/><feBlend in2="BackgroundImageFix" result="effect1_dropShadow"/><feBlend in="SourceGraphic" in2="effect1_dropShadow" result="shape"/></filter></defs></svg>