<svg width="51" height="27" fill="none" xmlns="http://www.w3.org/2000/svg"><g clip-path="url(#clip0)"><g filter="url(#filter0_d)"><path fill-rule="evenodd" clip-rule="evenodd" d="M0 10C0 4.477 4.477 0 10 0h31c5.523 0 10 4.477 10 10v4c0 5.523-4.477 10-10 10H30l-5 3-5-3H10C4.477 24 0 19.523 0 14v-4z" fill="#fff"/></g><path d="M10.633 8.545V17h1.77v-2.666h1.581c1.782 0 3.018-1.16 3.018-2.894 0-1.74-1.195-2.895-2.93-2.895h-3.44zm1.77 1.4h1.2c1.014 0 1.6.54 1.6 1.5 0 .967-.592 1.506-1.605 1.506h-1.196V9.945zm7.417-.017h1.506c.88 0 1.43.527 1.43 1.347 0 .838-.522 1.348-1.412 1.348H19.82V9.928zm0 3.978h1.418L22.814 17h2.004l-1.78-3.357c.972-.381 1.534-1.319 1.534-2.403 0-1.67-1.113-2.695-3.058-2.695H18.05V17h1.77v-3.094zm9.733-5.508c-2.508 0-4.078 1.682-4.078 4.377 0 2.69 1.57 4.371 4.078 4.371 2.502 0 4.078-1.681 4.078-4.37 0-2.696-1.576-4.378-4.078-4.378zm0 1.477c1.383 0 2.267 1.125 2.267 2.9 0 1.77-.884 2.89-2.267 2.89-1.389 0-2.274-1.12-2.274-2.89 0-1.775.89-2.9 2.274-2.9z" fill="#000"/><path fill-rule="evenodd" clip-rule="evenodd" d="M40.883 18.47a1 1 0 01-1.414 0l-3.176-3.176c-.623-.624-.194-1.69.688-1.707l1.216-.024V8a1 1 0 011-1h2.118a1 1 0 011 1v5.484l1.142-.022c.9-.017 1.363 1.07.727 1.707l-3.3 3.3z" fill="#04CD00"/></g><defs><clipPath id="clip0"><path fill="#fff" d="M0 0h51v27H0z"/></clipPath><filter id="filter0_d" x="-4" y="-2" width="59" height="35" filterUnits="userSpaceOnUse" color-interpolation-filters="sRGB"><feFlood flood-opacity="0" result="BackgroundImageFix"/><feColorMatrix in="SourceAlpha" values="0 0 0 0 0 0 0 0 0 0 0 0 0 0 0 0 0 0 127 0" result="hardAlpha"/><feOffset dy="2"/><feGaussianBlur stdDeviation="2"/><feColorMatrix values="0 0 0 0 0.352925 0 0 0 0 0 0 0 0 0 0.487432 0 0 0 0.258332 0"/><feBlend in2="BackgroundImageFix" result="effect1_dropShadow"/><feBlend in="SourceGraphic" in2="effect1_dropShadow" result="shape"/></filter></defs></svg>